<svg width="1170" height="455" viewBox="0 0 1170 455" fill="none" xmlns="http://www.w3.org/2000/svg">
<g clip-path="url(#clip0_414_2)">
<path d="M39 0L1131 70C1141.34 70 1151.26 74.1089 1158.58 81.4228C1165.89 88.7368 1170 98.6566 1170 109V416C1170 426.343 1165.89 436.263 1158.58 443.577C1151.26 450.891 1141.34 455 1131 455H39C28.6566 455 18.7368 450.891 11.4228 443.577C4.10892 436.263 0 426.343 0 416V39C0 28.6566 4.10892 18.7368 11.4228 11.4228C18.7368 4.10892 28.6566 0 39 0Z" fill="url(#paint0_linear_414_2)"/>
<path opacity="0.06" d="M54.5 116C118.289 116 170 64.2889 170 0.5C170 -63.2889 118.289 -115 54.5 -115C-9.28889 -115 -61 -63.2889 -61 0.5C-61 64.2889 -9.28889 116 54.5 116Z" fill="white"/>
<path opacity="0.06" d="M54.5 168C147.008 168 222 93.0077 222 0.5C222 -92.0077 147.008 -167 54.5 -167C-38.0077 -167 -113 -92.0077 -113 0.5C-113 93.0077 -38.0077 168 54.5 168Z" fill="white"/>
<path opacity="0.06" d="M54.5 228C180.145 228 282 126.145 282 0.5C282 -125.145 180.145 -227 54.5 -227C-71.1448 -227 -173 -125.145 -173 0.5C-173 126.145 -71.1448 228 54.5 228Z" fill="white"/>
</g>
<defs>
<linearGradient id="paint0_linear_414_2" x1="585" y1="0" x2="585" y2="455" gradientUnits="userSpaceOnUse">
<stop stop-color="#DB33F0"/>
<stop offset="0.989583" stop-color="#F62FD6"/>
</linearGradient>
<clipPath id="clip0_414_2">
<rect width="1170" height="455" fill="white"/>
</clipPath>
</defs>
</svg>
